# File created by Blade
# Date/Time:  Tue Sep 30 19:29:27 2014
#---------------------------------------------------------
:version 1.10
:name HOM
:units
  mass 1.0
  length 1.000000
  angle deg
:documentation
     Acclaim Skeleton File
:root
   axis xyz
   order TX TY TZ RX RY RZ
   position 0.000000 0.000000 0.000000
   orientation 0 0 0
:bonedata
   begin
      id 1
      name RightUpLeg_dum
      direction -1.000000 0.000000 0.000000
      length 3.766986
      axis 0.0 0.0 0.0 xyz
   end
   begin
      id 2
      name LeftUpLeg_dum
      direction 1.000000 0.000000 0.000000
      length 3.766986
      axis 0.0 0.0 0.0 xyz
   end
   begin
      id 3
      name Spine_dum
      direction 0.000000 1.000000 0.000000
      length 7.779697
      axis 0.0 0.0 0.0 xyz
   end
   begin
      id 4
      name RightUpLeg
      direction 0.000000 -1.000000 0.000000
      length 18.017682
      axis 0.0 0.0 0.0 xyz
      dof rx ry rz
   end
   begin
      id 5
      name RightLeg
      direction 0.000000 -1.000000 0.000000
      length 16.881075
      axis 0.0 0.0 0.0 xyz
      dof rx ry rz
   end
   begin
      id 6
      name RightFoot
      direction 0.000000 -0.258819 0.965926
      length 5.770812
      axis 15.0 0.0 0.0 xyz
      dof rx ry rz
   end
   begin
      id 7
      name RightToeBase
      direction 0.000000 0.000000 1.000000
      length 2.952750
      axis 0.0 0.0 0.0 xyz
      dof rx ry rz
   end
   begin
      id 8
      name LeftUpLeg
      direction 0.000000 -1.000000 0.000000
      length 18.017682
      axis 0.0 0.0 0.0 xyz
      dof rx ry rz
   end
   begin
      id 9
      name LeftLeg
      direction 0.000000 -1.000000 0.000000
      length 16.881075
      axis 0.0 0.0 0.0 xyz
      dof rx ry rz
   end
   begin
      id 10
      name LeftFoot
      direction 0.000000 -0.258819 0.965926
      length 5.770812
      axis 15.0 0.0 0.0 xyz
      dof rx ry rz
   end
   begin
      id 11
      name LeftToeBase
      direction 0.000000 0.000000 1.000000
      length 2.952750
      axis 0.0 0.0 0.0 xyz
      dof rx ry rz
   end
   begin
      id 12
      name Spine
      direction 0.000000 1.000000 0.000000
      length 0.000000
      axis 0.0 0.0 0.0 xyz
      dof rx ry rz
   end
   begin
      id 13
      name Spine_dum1
      direction 0.000000 1.000000 0.000000
      length 10.941760
      axis 0.0 0.0 0.0 xyz
   end
   begin
      id 14
      name Spine_dum2
      direction 0.000000 1.000000 0.000000
      length 10.941760
      axis 0.0 0.0 0.0 xyz
   end
   begin
      id 15
      name Spine_dum3
      direction 0.000000 1.000000 0.000000
      length 16.646042
      axis 0.0 0.0 0.0 xyz
   end
   begin
      id 16
      name RightShoulder
      direction -1.000000 0.000000 0.000000
      length 7.708937
      axis 0.0 0.0 90.0 xyz
      dof rx ry rz
   end
   begin
      id 17
      name RightArm
      direction -1.000000 0.000000 0.000000
      length 11.521345
      axis 0.0 0.0 90.0 xyz
      dof rx ry rz
   end
   begin
      id 18
      name RightForeArm
      direction -1.000000 0.000000 0.000000
      length 10.175898
      axis 0.0 0.0 90.0 xyz
      dof ry rz rx
   end
   begin
      id 19
      name RightHand
      direction -1.000000 0.000000 0.000000
      length 0.000000
      axis 0.0 0.0 90.0 xyz
      dof rx ry rz
   end
   begin
      id 20
      name RightHand_dum1
      direction -1.000000 0.000000 0.000000
      length 3.937000
      axis 0.0 0.0 90.0 xyz
   end
   begin
      id 21
      name RightHand_dum2
      direction 0.000000 0.000000 0.000000
      length 0.000000
      axis 0.0 0.0 90.0 xyz
   end
   begin
      id 22
      name RightHandThumb1
      direction 0.000000 0.000000 1.000000
      length 3.937000
      axis 0.0 0.0 90.0 xyz
      dof rx rz ry
   end
   begin
      id 23
      name LeftShoulder
      direction 1.000000 0.000000 0.000000
      length 7.708937
      axis 0.0 0.0 -90.0 xyz
      dof rx ry rz
   end
   begin
      id 24
      name LeftArm
      direction 1.000000 0.000000 0.000000
      length 11.521345
      axis 0.0 0.0 -90.0 xyz
      dof rx ry rz
   end
   begin
      id 25
      name LeftForeArm
      direction 1.000000 0.000000 0.000000
      length 10.175898
      axis 0.0 0.0 -90.0 xyz
      dof ry rz rx
   end
   begin
      id 26
      name LeftHand
      direction 1.000000 0.000000 0.000000
      length 0.000000
      axis 0.0 0.0 -90.0 xyz
      dof rx ry rz
   end
   begin
      id 27
      name LeftHand_dum1
      direction 1.000000 0.000000 0.000000
      length 3.937000
      axis 0.0 0.0 -90.0 xyz
   end
   begin
      id 28
      name LeftHand_dum2
      direction 0.000000 0.000000 0.000000
      length 0.000000
      axis 0.0 0.0 -90.0 xyz
   end
   begin
      id 29
      name LeftHandThumb1
      direction 0.000000 0.000000 1.000000
      length 3.937000
      axis 0.0 0.0 -90.0 xyz
      dof rx rz ry
   end
   begin
      id 30
      name Head
      direction 0.000000 1.000000 0.000000
      length 4.527550
      axis 0.0 0.0 0.0 xyz
      dof rx ry rz
   end
:hierarchy
   begin
      root RightUpLeg_dum LeftUpLeg_dum Spine_dum
      RightUpLeg_dum RightUpLeg
      LeftUpLeg_dum LeftUpLeg
      Spine_dum Spine
      RightUpLeg RightLeg
      RightLeg RightFoot
      RightFoot RightToeBase
      LeftUpLeg LeftLeg
      LeftLeg LeftFoot
      LeftFoot LeftToeBase
      Spine Spine_dum1 Spine_dum2 Spine_dum3
      Spine_dum1 RightShoulder
      Spine_dum2 LeftShoulder
      Spine_dum3 Head
      RightShoulder RightArm
      RightArm RightForeArm
      RightForeArm RightHand
      RightHand RightHand_dum1 RightHand_dum2
      RightHand_dum2 RightHandThumb1
      LeftShoulder LeftArm
      LeftArm LeftForeArm
      LeftForeArm LeftHand
      LeftHand LeftHand_dum1 LeftHand_dum2
      LeftHand_dum2 LeftHandThumb1
   end

# File created by Blade
# Date/Time:  Mon Sep 22 17:23:16 2014
# Frame Rate: 120.000 fps
#------------------------------------------------------
:FULLY-SPECIFIED
:DEGREES
271
root 1.788102 37.459883 0.352470 -21.317264 1.432167 -4.384375
RightUpLeg -67.190571 1.219768 5.058163
RightLeg 103.677481 -0.000000 -0.000000
RightFoot -11.621644 -16.519362 14.266987
RightToeBase -1.259426 -0.000000 0.000000
LeftUpLeg 21.135616 -8.505742 -7.091607
LeftLeg 11.278855 -0.000000 -0.000000
LeftFoot -14.038337 13.652560 -13.433148
LeftToeBase 4.126048 -0.000000 -0.000000
Spine 26.416896 -11.754848 -2.040535
RightShoulder 0.064473 -27.845167 -6.084918
RightArm 21.400360 -20.498757 59.889260
RightForeArm -172.795213 -0.000000 53.176382
RightHand 100.778454 0.000000 -173.104905
RightHandThumb1 -24.326973 -0.000000 -32.862282
LeftShoulder -15.797196 27.483310 8.488437
LeftArm 73.923899 -15.414518 -62.894409
LeftForeArm 43.213050 -0.000000 65.015311
LeftHand -28.308786 -0.000000 -5.393686
LeftHandThumb1 -26.253704 0.000000 33.147579
Head 2.739419 13.023448 4.565397
272
root 1.760810 37.465480 0.357092 -21.320468 1.386365 -4.412128
RightUpLeg -67.458166 1.841814 5.283783
RightLeg 104.499787 -0.000000 -0.000000
RightFoot -11.659512 -16.431664 14.332806
RightToeBase -1.245916 -0.000000 0.000000
LeftUpLeg 21.161127 -8.510009 -7.022008
LeftLeg 11.254541 -0.000000 -0.000000
LeftFoot -14.041132 13.650941 -13.491119
LeftToeBase 4.118980 -0.000000 -0.000000
Spine 26.430301 -11.962443 -2.171529
RightShoulder -0.005978 -27.882384 -6.039075
RightArm 21.435818 -20.581253 59.732322
RightForeArm -172.750467 -0.000000 53.184505
RightHand 100.796815 -0.000000 -172.816826
RightHandThumb1 -24.326973 -0.000000 -32.862282
LeftShoulder -15.840995 27.460875 8.418553
LeftArm 73.804624 -15.601558 -62.878851
LeftForeArm 43.155757 -0.000000 64.926379
LeftHand -28.383876 0.000000 -5.337129
LeftHandThumb1 -26.253704 0.000000 33.147579
Head 2.725775 13.185563 4.472330
273
root 1.734285 37.469264 0.362768 -21.300449 1.406642 -4.448500
RightUpLeg -67.777019 2.393557 5.531516
RightLeg 105.400435 -0.000000 -0.000000
RightFoot -11.655932 -16.461330 14.229940
RightToeBase -1.399583 -0.000000 0.000000
LeftUpLeg 21.158649 -8.531973 -6.945338
LeftLeg 11.238662 -0.000000 -0.000000
LeftFoot -14.041696 13.634530 -13.464277
LeftToeBase 4.121204 -0.000000 -0.000000
Spine 26.407168 -12.217740 -2.304161
RightShoulder -0.121697 -27.980331 -5.964640
RightArm 21.502612 -20.675698 59.553933
RightForeArm -172.502161 -0.000000 53.185050
RightHand 100.850708 0.000000 -172.947908
RightHandThumb1 -24.326973 -0.000000 -32.862282
LeftShoulder -15.852531 27.444123 8.370570
LeftArm 73.656655 -15.792046 -62.841499
LeftForeArm 43.138245 -0.000000 64.859692
LeftHand -28.391632 -0.000000 -5.218261
LeftHandThumb1 -26.253704 0.000000 33.147579
Head 2.750472 13.433584 4.485797
274
root 1.703707 37.475054 0.366079 -21.295595 1.480192 -4.494145
RightUpLeg -68.096973 2.906793 5.817120
RightLeg 106.312556 -0.000000 -0.000000
RightFoot -11.662257 -16.401390 14.166400
RightToeBase -1.510731 -0.000000 0.000000
LeftUpLeg 21.159250 -8.592368 -6.868932
LeftLeg 11.234029 -0.000000 -0.000000
LeftFoot -14.032147 13.613200 -13.441674
LeftToeBase 4.092206 -0.000000 -0.000000
Spine 26.428311 -12.538069 -2.482829
RightShoulder -0.225871 -27.944344 -5.875265
RightArm 21.454421 -20.751551 59.476357
RightForeArm -172.588351 -0.000000 53.186933
RightHand 100.839690 -0.000000 -173.321386
RightHandThumb1 -24.326973 -0.000000 -32.862282
LeftShoulder -15.874846 27.424280 8.316120
LeftArm 73.542706 -16.020214 -62.841607
LeftForeArm 43.240051 -0.000000 64.759993
LeftHand -28.424669 -0.000000 -5.252170
LeftHandThumb1 -26.253704 0.000000 33.147579
Head 2.691720 13.665922 4.448070
275
root 1.675162 37.481241 0.368382 -21.271132 1.595701 -4.533359
RightUpLeg -68.463628 3.389797 6.096477
RightLeg 107.285876 -0.000000 -0.000000
RightFoot -11.681616 -16.254969 14.116417
RightToeBase -1.461047 -0.000000 0.000000
LeftUpLeg 21.127197 -8.643043 -6.787570
LeftLeg 11.240187 -0.000000 -0.000000
LeftFoot -14.009912 13.543816 -13.443196
LeftToeBase 4.129814 -0.000000 -0.000000
Spine 26.425938 -12.893281 -2.686585
RightShoulder -0.324007 -27.926791 -5.759575
RightArm 21.400870 -20.836203 59.372767
RightForeArm -172.664772 -0.000000 53.191941
RightHand 100.855018 -0.000000 -173.172465
RightHandThumb1 -24.326973 -0.000000 -32.862282
LeftShoulder -15.886890 27.424721 8.252701
LeftArm 73.419116 -16.271045 -62.794082
LeftForeArm 43.297482 -0.000000 64.672197
LeftHand -28.395857 0.000000 -5.237547
LeftHandThumb1 -26.253704 0.000000 33.147579
Head 2.676783 13.904255 4.474524
276
root 1.646210 37.488297 0.371569 -21.257112 1.766913 -4.584588
RightUpLeg -68.838305 3.793424 6.419781
RightLeg 108.287126 -0.000000 -0.000000
RightFoot -11.642978 -16.129669 13.966337
RightToeBase -1.568910 -0.000000 0.000000
LeftUpLeg 21.105209 -8.742010 -6.714290
LeftLeg 11.252101 -0.000000 -0.000000
LeftFoot -14.007562 13.475784 -13.459674
LeftToeBase 4.185976 -0.000000 -0.000000
Spine 26.446458 -13.297200 -2.912623
RightShoulder -0.466683 -28.016239 -5.624257
RightArm 21.450255 -20.815622 59.278785
RightForeArm -172.524432 -0.000000 53.161702
RightHand 100.852078 -0.000000 -173.344529
RightHandThumb1 -24.326973 -0.000000 -32.862282
LeftShoulder -15.852506 27.355648 8.272283
LeftArm 73.228243 -16.475772 -62.803871
LeftForeArm 43.489630 -0.000000 64.543219
LeftHand -28.446976 -0.000000 -5.142006
LeftHandThumb1 -26.253704 0.000000 33.147579
Head 2.642845 14.015918 4.454762
277
root 1.620160 37.496396 0.375486 -21.260110 1.978548 -4.627091
RightUpLeg -69.218913 4.140699 6.761726
RightLeg 109.331844 -0.000000 -0.000000
RightFoot -11.655086 -15.972835 14.057415
RightToeBase -1.500791 -0.000000 0.000000
LeftUpLeg 21.090388 -8.779114 -6.618770
LeftLeg 11.267409 -0.000000 -0.000000
LeftFoot -13.961021 13.284557 -13.467072
LeftToeBase 4.252281 -0.000000 -0.000000
Spine 26.493800 -13.732397 -3.166033
RightShoulder -0.639385 -28.012020 -5.465772
RightArm 21.442391 -20.874412 59.183488
RightForeArm -172.515420 -0.000000 53.113614
RightHand 100.834735 -0.000000 -173.094576
RightHandThumb1 -24.326973 -0.000000 -32.862282
LeftShoulder -15.832436 27.351432 8.246450
LeftArm 73.113517 -16.725165 -62.781642
LeftForeArm 43.618238 -0.000000 64.413181
LeftHand -28.434789 -0.000000 -5.036207
LeftHandThumb1 -26.253704 0.000000 33.147579
Head 2.594550 14.224323 4.517999
278
root 1.591492 37.504562 0.378418 -21.267633 2.223133 -4.675088
RightUpLeg -69.613691 4.451990 7.125468
RightLeg 110.383823 -0.000000 -0.000000
RightFoot -11.600786 -15.764908 14.005022
RightToeBase -1.627589 -0.000000 0.000000
LeftUpLeg 21.083596 -8.884796 -6.545199
LeftLeg 11.277966 -0.000000 -0.000000
LeftFoot -13.907002 13.150528 -13.475803
LeftToeBase 4.231205 -0.000000 -0.000000
Spine 26.562771 -14.243543 -3.438327
RightShoulder -0.715817 -27.944051 -5.387519
RightArm 21.318814 -20.921599 59.187755
RightForeArm -172.492078 -0.000000 53.125838
RightHand 100.907115 -0.000000 -172.914683
RightHandThumb1 -24.326973 -0.000000 -32.862282
LeftShoulder -15.851586 27.327024 8.170061
LeftArm 72.984355 -17.009229 -62.705656
LeftForeArm 43.726269 0.000000 64.219966
LeftHand -28.459263 -0.000000 -4.775326
LeftHandThumb1 -26.253704 0.000000 33.147579
Head 2.528460 14.556913 4.581136
279
root 1.563574 37.513169 0.380402 -21.280672 2.500057 -4.710648
RightUpLeg -70.009898 4.768191 7.477961
RightLeg 111.436450 -0.000000 -0.000000
RightFoot -11.576333 -15.493564 14.009356
RightToeBase -1.787138 -0.000000 0.000000
LeftUpLeg 21.071629 -8.976084 -6.474025
LeftLeg 11.299209 -0.000000 -0.000000
LeftFoot -13.867503 12.959391 -13.502935
LeftToeBase 4.370915 -0.000000 -0.000000
Spine 26.656231 -14.734600 -3.756403
RightShoulder -0.878347 -27.996113 -5.226036
RightArm 21.332546 -20.887787 59.141956
RightForeArm -172.513897 -0.000000 53.112549
RightHand 100.905122 -0.000000 -173.426475
RightHandThumb1 -24.326973 -0.000000 -32.862282
LeftShoulder -15.838647 27.324691 8.177264
LeftArm 72.903572 -17.251861 -62.712178
LeftForeArm 43.869341 -0.000000 63.998503
LeftHand -28.470686 -0.000000 -4.449846
LeftHandThumb1 -26.253704 0.000000 33.147579
Head 2.433970 14.795399 4.684624
280
root 1.532508 37.524969 0.384241 -21.336407 2.798416 -4.769502
RightUpLeg -70.367085 5.024529 7.913857
RightLeg 112.479991 -0.000000 -0.000000
RightFoot -11.567384 -15.275898 14.024588
RightToeBase -1.693590 -0.000000 0.000000
LeftUpLeg 21.115618 -9.090310 -6.385613
LeftLeg 11.293979 -0.000000 -0.000000
LeftFoot -13.792142 12.752432 -13.545621
LeftToeBase 4.390042 -0.000000 -0.000000
Spine 26.803243 -15.198399 -4.064670
RightShoulder -1.051977 -27.978701 -5.040021
RightArm 21.223770 -20.870695 59.163753
RightForeArm -172.623220 -0.000000 53.126716
RightHand 100.874628 -0.000000 -173.318863
RightHandThumb1 -24.326973 -0.000000 -32.862282
LeftShoulder -15.764047 27.260328 8.236360
LeftArm 72.811700 -17.484912 -62.733689
LeftForeArm 44.075058 -0.000000 63.718711
LeftHand -28.354289 -0.000000 -4.337237
LeftHandThumb1 -26.253704 0.000000 33.147579
Head 2.334007 14.931287 4.789667
281
root 1.502881 37.536973 0.389648 -21.415208 3.112640 -4.831953
RightUpLeg -70.701512 5.264579 8.356691
RightLeg 113.517470 -0.000000 -0.000000
RightFoot -11.532139 -14.971593 14.073857
RightToeBase -1.835817 -0.000000 0.000000
LeftUpLeg 21.188337 -9.199525 -6.300611
LeftLeg 11.274692 -0.000000 -0.000000
LeftFoot -13.724500 12.539150 -13.611391
LeftToeBase 4.516599 -0.000000 -0.000000
Spine 26.994253 -15.686547 -4.392126
RightShoulder -1.198290 -27.962307 -4.870970
RightArm 21.088256 -20.723009 59.256234
RightForeArm -172.610245 -0.000000 53.106413
RightHand 100.860861 -0.000000 -173.156638
RightHandThumb1 -24.326973 -0.000000 -32.862282
LeftShoulder -15.699299 27.199870 8.309475
LeftArm 72.725349 -17.704387 -62.776863
LeftForeArm 44.261710 0.000000 63.458064
LeftHand -28.390052 -0.000000 -4.063256
LeftHandThumb1 -26.253704 0.000000 33.147579
Head 2.198564 15.168638 4.962624
282
root 1.471981 37.549307 0.396275 -21.522377 3.434865 -4.877996
RightUpLeg -71.019027 5.513018 8.794742
RightLeg 114.543091 -0.000000 -0.000000
RightFoot -11.484715 -14.578724 14.117369
RightToeBase -1.825900 -0.000000 0.000000
LeftUpLeg 21.299831 -9.335555 -6.250584
LeftLeg 11.244055 -0.000000 -0.000000
LeftFoot -13.655924 12.358527 -13.678354
LeftToeBase 4.640360 -0.000000 -0.000000
Spine 27.227919 -16.152746 -4.764381
RightShoulder -1.344383 -27.958363 -4.697177
RightArm 20.947221 -20.578803 59.365498
RightForeArm -172.470990 -0.000000 53.110258
RightHand 100.892239 0.000000 -173.018795
RightHandThumb1 -24.326973 -0.000000 -32.862282
LeftShoulder -15.620209 27.112601 8.438423
LeftArm 72.639904 -17.907066 -62.867380
LeftForeArm 44.384220 -0.000000 63.147968
LeftHand -28.358995 -0.000000 -3.774234
LeftHandThumb1 -26.253704 0.000000 33.147579
Head 2.060864 15.351015 5.138029
283
root 1.441990 37.561578 0.403685 -21.661349 3.783738 -4.903408
RightUpLeg -71.307980 5.751401 9.246082
RightLeg 115.545191 -0.000000 -0.000000
RightFoot -11.382890 -14.227769 14.264562
RightToeBase -2.058734 -0.000000 0.000000
LeftUpLeg 21.460945 -9.537105 -6.265348
LeftLeg 11.192558 -0.000000 -0.000000
LeftFoot -13.596257 12.250172 -13.741716
LeftToeBase 4.848474 -0.000000 -0.000000
Spine 27.514614 -16.616296 -5.198545
RightShoulder -1.484727 -28.022255 -4.507890
RightArm 20.845281 -20.407749 59.465005
RightForeArm -172.402743 -0.000000 53.141148
RightHand 100.951197 -0.000000 -172.968199
RightHandThumb1 -24.326973 -0.000000 -32.862282
LeftShoulder -15.549125 27.046133 8.575086
LeftArm 72.632105 -18.123351 -62.959166
LeftForeArm 44.535199 -0.000000 62.783112
LeftHand -28.305835 -0.000000 -3.558605
LeftHandThumb1 -26.253704 0.000000 33.147579
Head 1.917668 15.510129 5.367391
